<?xml version="1.0" encoding="utf-8"?>
<!-- Generator: Adobe Illustrator 24.1.2, SVG Export Plug-In . SVG Version: 6.00 Build 0)  -->
<svg version="1.1" id="Warstwa_1" xmlns="http://www.w3.org/2000/svg" xmlns:xlink="http://www.w3.org/1999/xlink" x="0px" y="0px"
	 viewBox="0 0 430 430" style="enable-background:new 0 0 430 430;" xml:space="preserve">
<style type="text/css">
	.st0{fill:#e83a30;}
	.st1{fill:#121331;}
	.st2{fill:#e83a30;}
	.st3{fill:#00A689;}
	.st4{fill:none;}
	.st5{fill:none;stroke:#121331;stroke-width:12;stroke-linecap:round;stroke-linejoin:round;stroke-miterlimit:10;}
</style>
<path class="st1" d="M119.24,279.15c-1.5,0-3.01-0.56-4.18-1.7l-0.02-0.02c-2.37-2.31-2.42-6.11-0.1-8.48
	c2.31-2.37,6.11-2.42,8.48-0.1c2.37,2.31,2.43,6.12,0.11,8.49C122.37,278.55,120.8,279.15,119.24,279.15z"/>
<g>
	<path class="st2" d="M260.04,155.02c-2.62-2.37-6.1-3.33-9.55-2.65l-22.71,4.47c-3.25,0.64-5.37,3.79-4.73,7.05
		c0.64,3.25,3.8,5.37,7.04,4.73l21.45-4.22l-4.61,46.54l-19.15,3.76c-3.25,0.64-5.37,3.79-4.73,7.04c0.56,2.86,3.07,4.84,5.88,4.84
		c0.38,0,0.77-0.04,1.16-0.11l19.85-3.9c4.82-0.95,8.38-4.87,8.86-9.76l4.81-48.53C263.97,160.77,262.66,157.39,260.04,155.02z"/>
	<path class="st2" d="M151.3,211.01c-2.1-2.83-5.34-4.46-8.87-4.46c0,0,0,0,0,0c-3.53,0-6.76,1.63-8.87,4.46l-29.07,39.14
		c-2.93,3.94-2.93,9.24,0,13.18l29.07,39.14v0c2.11,2.84,5.34,4.46,8.87,4.46c3.53,0,6.76-1.63,8.87-4.46l29.08-39.14
		c2.92-3.94,2.92-9.23,0-13.18L151.3,211.01z M142.43,294.29l-27.89-37.55l27.89-37.55l27.89,37.55L142.43,294.29z"/>
</g>
<g>
	<path class="st1" d="M374.19,140.22L263.92,40.01c-3.55-3.23-8.15-4.88-12.97-4.65c-4.81,0.23-9.24,2.31-12.46,5.86l-70.52,77.6
		H67.93c-9.92,0-18,8.07-18,18v239.83c0,9.93,8.08,18,18,18h149.01c9.92,0,18-8.07,18-18v-56.43l140.47-154.58
		C382.08,158.31,381.54,146.9,374.19,140.22z M222.93,376.66c0,3.31-2.69,6-6,6H67.93c-3.31,0-6-2.69-6-6V136.83c0-3.31,2.69-6,6-6
		h149.01c3.31,0,6,2.69,6,6V376.66z M366.53,157.57L234.93,302.38V136.83c0-9.93-8.08-18-18-18h-32.75l63.19-69.53
		c1.07-1.18,2.54-1.87,4.15-1.94c1.6-0.08,3.14,0.47,4.32,1.54L366.12,149.1C368.57,151.33,368.75,155.13,366.53,157.57z"/>
	<path class="st1" d="M259.77,70.01c-2.37-2.15-6-2.07-8.27,0.19l-15.1,15.02c-0.01,0.01-0.01,0.01-0.01,0.02
		c-0.27,0.28-0.52,0.58-0.74,0.9c-0.01,0.01-0.02,0.02-0.02,0.03c-0.21,0.32-0.39,0.67-0.54,1.03c0,0.01-0.01,0.02-0.01,0.03
		c-0.28,0.68-0.43,1.43-0.43,2.2c0,0.01,0,0.03,0,0.04c0,0.21,0.01,0.42,0.03,0.64c0.01,0.14,0.04,0.27,0.06,0.41
		c0.01,0.04,0.01,0.08,0.02,0.13c0.07,0.35,0.17,0.68,0.29,1c0.01,0.04,0.03,0.07,0.04,0.11c0.14,0.34,0.31,0.66,0.5,0.96
		c0.02,0.02,0.03,0.05,0.04,0.07c0.22,0.33,0.47,0.63,0.74,0.91c0,0,0,0.01,0.01,0.01c0,0,0,0,0,0c1.24,1.24,3,1.93,4.89,1.73
		c1.89-0.2,3.78,0.42,5.19,1.69c1.32,1.2,2.09,2.84,2.18,4.62c0.08,1.78-0.53,3.48-1.73,4.8c-1.2,1.32-2.84,2.09-4.62,2.18
		c-1.78,0.09-3.49-0.53-4.8-1.73c-1.4-1.28-2.2-3.1-2.18-5.01c0.04-3.31-2.62-6.03-5.94-6.06c-3.33-0.08-6.03,2.62-6.06,5.94
		c-0.06,5.33,2.17,10.44,6.11,14.02c3.46,3.15,7.88,4.85,12.53,4.85c0.3,0,0.61-0.01,0.92-0.02c4.98-0.24,9.57-2.4,12.92-6.09
		c3.35-3.69,5.07-8.47,4.83-13.45c-0.24-4.98-2.4-9.57-6.09-12.92c-0.74-0.67-1.54-1.25-2.36-1.79l3.75-3.73l10.64,9.67
		c2.45,2.23,6.25,2.05,8.48-0.41c2.23-2.45,2.05-6.25-0.41-8.48L259.77,70.01z"/>
	<path class="st1" d="M105.52,186.18H92.88l12.92-15.54c0.05-0.06,0.1-0.13,0.15-0.19c2.23-2.92,3.41-6.4,3.41-10.06
		c0-9.13-7.43-16.56-16.56-16.56c-9.13,0-16.55,7.43-16.55,16.56c0,3.31,2.69,6,6,6s6-2.69,6-6c0-2.51,2.04-4.56,4.55-4.56
		c2.51,0,4.56,2.05,4.56,4.56c0,1.22-0.47,2.13-0.88,2.7l-21,25.27c-1.49,1.79-1.81,4.28-0.82,6.38s3.1,3.45,5.43,3.45h25.43
		c3.31,0,6-2.69,6-6S108.83,186.18,105.52,186.18z"/>
	<path class="st1" d="M203.38,315.09h-25.43c-3.31,0-6,2.69-6,6s2.69,6,6,6h12.64l-12.92,15.54c-0.05,0.06-0.1,0.13-0.15,0.19
		c-2.23,2.92-3.41,6.4-3.41,10.06c0,9.13,7.43,16.56,16.56,16.56c9.13,0,16.55-7.43,16.55-16.56c0-3.31-2.69-6-6-6s-6,2.69-6,6
		c0,2.51-2.04,4.56-4.55,4.56c-2.51,0-4.56-2.05-4.56-4.56c0-1.22,0.47-2.13,0.88-2.69l21-25.27c1.49-1.79,1.81-4.28,0.82-6.38
		S205.71,315.09,203.38,315.09z"/>
</g>
</svg>
